<svg width="200" height="200" viewBox="0 0 200 200" xmlns="http://www.w3.org/2000/svg">
  <defs>
    <!-- Gradients for 3D effect -->
    <linearGradient id="yellowGradient" x1="0%" y1="0%" x2="100%" y2="100%">
      <stop offset="0%" style="stop-color:#FFD700;stop-opacity:1" />
      <stop offset="50%" style="stop-color:#FFA500;stop-opacity:1" />
      <stop offset="100%" style="stop-color:#FF8C00;stop-opacity:1" />
    </linearGradient>
    
    <linearGradient id="greenGradient" x1="0%" y1="0%" x2="100%" y2="100%">
      <stop offset="0%" style="stop-color:#32CD32;stop-opacity:1" />
      <stop offset="50%" style="stop-color:#228B22;stop-opacity:1" />
      <stop offset="100%" style="stop-color:#006400;stop-opacity:1" />
    </linearGradient>
    
    <!-- Drop shadow filter -->
    <filter id="shadow" x="-20%" y="-20%" width="140%" height="140%">
      <feDropShadow dx="2" dy="4" stdDeviation="3" flood-color="#000000" flood-opacity="0.3"/>
    </filter>
  </defs>
  
  <!-- Background circle with gradient -->
  <circle cx="100" cy="100" r="90" fill="url(#yellowGradient)" opacity="0.1"/>
  
  <!-- Star shape -->
  <g filter="url(#shadow)">
    <!-- Left half of star (yellow) -->
    <path d="M100 20 L120 70 L170 70 L130 110 L150 160 L100 130 L50 160 L70 110 L30 70 L80 70 Z" 
          fill="url(#yellowGradient)" 
          stroke="#FFD700" 
          stroke-width="2"/>
    
    <!-- Right half of star (green) -->
    <path d="M100 20 L120 70 L170 70 L130 110 L150 160 L100 130 L50 160 L70 110 L30 70 L80 70 Z" 
          fill="url(#greenGradient)" 
          stroke="#32CD32" 
          stroke-width="2"/>
    
    <!-- Lightning bolt overlay -->
    <path d="M85 30 L115 70 L95 80 L125 120 L85 110 L115 170" 
          fill="none" 
          stroke="#FFFFFF" 
          stroke-width="4" 
          stroke-linecap="round" 
          stroke-linejoin="round" 
          opacity="0.8"/>
  </g>
  
  <!-- Highlight effects for 3D appearance -->
  <circle cx="85" cy="85" r="3" fill="#FFFFFF" opacity="0.6"/>
  <circle cx="115" cy="115" r="2" fill="#FFFFFF" opacity="0.4"/>
</svg> 